<svg width="242" height="844" viewBox="0 0 242 844" fill="none" xmlns="http://www.w3.org/2000/svg">
<path d="M153.734 336.673C141.71 343.591 127.051 343.591 115.028 336.673C111.075 334.532 107.78 331.567 105.31 327.944C103.004 324.979 101.192 321.685 100.039 318.061C98.7214 314.767 97.8978 311.308 97.5684 307.684C97.4037 306.531 97.4037 305.543 97.4037 304.39L97.4037 304.225C97.4037 303.072 97.4037 301.919 97.5684 300.931C97.8978 297.308 98.7214 293.849 100.039 290.555C101.192 286.931 103.004 283.637 105.31 280.672C107.78 277.048 111.075 274.084 115.028 271.778C127.051 265.025 141.71 265.025 153.734 271.778C157.523 274.084 160.981 277.048 163.452 280.672C165.758 283.637 167.57 286.931 168.723 290.555C170.04 293.849 170.864 297.308 171.193 300.931C171.358 301.919 171.358 303.072 171.358 304.225C171.358 305.378 171.358 306.531 171.193 307.684C170.864 311.308 170.04 314.767 168.723 318.061C167.57 321.685 165.758 324.979 163.452 327.944C160.981 331.567 157.523 334.532 153.734 336.673ZM119.475 327.285C129.193 330.744 139.569 330.744 149.287 327.285C152.581 326.296 155.546 324.649 158.511 322.838C161.146 321.19 163.452 318.885 165.264 316.414C167.735 312.79 169.052 308.673 169.052 304.225L169.052 304.061C169.052 299.778 167.735 295.661 165.264 292.202C163.452 289.566 161.146 287.425 158.511 285.778C155.546 283.801 152.581 282.319 149.287 281.331C139.569 277.872 129.193 277.872 119.475 281.331C116.181 282.319 113.051 283.801 110.251 285.778C107.616 287.425 105.145 289.566 103.333 292.202C101.027 295.825 99.7096 299.943 99.7096 304.225L99.7096 304.39L99.7096 304.555C99.7096 308.837 101.027 312.955 103.498 316.414C105.31 319.049 107.616 321.19 110.251 322.838C113.216 324.649 116.181 326.296 119.475 327.285Z" fill="#F7E5E2"/>
<path d="M165.099 264.832C164.934 264.832 164.605 264.997 164.44 264.997C163.452 264.997 162.464 264.667 161.64 264.008C160.652 263.02 159.664 262.032 158.84 260.879C158.181 260.22 157.852 259.232 157.523 258.408L157.523 258.244C157.523 257.914 157.523 257.585 157.523 257.255C157.687 257.091 157.687 256.926 157.852 256.761C159.829 255.279 160.981 252.973 160.981 250.502C160.817 247.373 159.664 244.243 157.687 241.773C155.381 238.808 152.417 236.667 148.958 235.184C148.299 235.184 147.475 235.184 146.816 235.184L146.816 235.349L109.427 235.349C104.98 235.349 100.698 237.161 97.7331 240.455L97.239 240.784L97.239 217.725L97.7331 218.219C100.698 221.513 104.98 223.325 109.427 223.325L146.816 223.325C149.781 223.325 152.911 222.996 156.04 222.337C158.017 222.007 159.993 221.349 161.97 220.69C166.417 218.878 169.217 214.431 169.052 209.654L171.358 209.654C171.358 212.784 171.029 215.913 170.04 218.878C169.382 221.349 168.229 223.819 166.746 225.961C164.934 228.431 162.629 230.572 159.993 232.055C157.852 233.208 155.711 234.031 153.57 234.525C156.04 235.678 158.346 236.996 160.652 238.643C164.276 241.114 167.076 244.737 168.558 248.855C169.876 252.479 169.711 256.432 168.393 260.055C168.229 260.714 167.899 261.373 167.735 261.867L166.746 263.514C166.417 264.173 165.758 264.667 165.099 264.832Z" fill="#F7E5E2"/>
<path d="M169.052 206.781L169.052 193.275L123.428 193.275C120.298 193.275 117.004 193.439 113.71 193.933C111.569 194.098 109.427 194.592 107.451 195.086C105.474 195.58 103.827 196.569 102.345 197.886C100.533 199.863 99.5449 202.498 99.7096 205.134L97.4037 205.134C97.239 201.839 97.8978 198.71 99.0508 195.745C100.204 193.439 101.521 191.133 103.333 189.321C105.31 187.016 107.78 185.204 110.58 183.886C114.698 182.239 118.981 181.251 123.428 181.251L169.052 181.251L169.052 172.356C173.664 183.227 194.747 193.275 194.747 193.275L171.358 193.275L171.358 206.781L169.052 206.781Z" fill="#F7E5E2"/>
<path d="M118.816 166.79L118.157 168.931L117.004 168.602C116.839 168.602 98.2273 162.507 97.7332 136.483L97.7332 135.495C97.7332 135.495 97.7332 134.177 97.7332 134.013C97.7332 133.354 97.8979 132.53 97.8979 131.871C98.2273 128.412 99.0509 124.954 100.369 121.495C101.522 118.036 103.333 114.742 105.475 111.777C108.11 108.153 111.239 105.188 115.028 103.047C127.051 96.1294 141.711 96.1294 153.734 103.047C157.358 105.188 160.652 108.153 163.287 111.777C165.429 114.742 167.24 118.036 168.393 121.495C169.711 124.954 170.535 128.412 170.864 131.871C171.029 133.024 171.029 134.177 171.029 135.33L171.029 136.483C170.864 140.93 169.876 145.378 168.229 149.66C165.099 157.895 158.346 164.319 149.781 167.119C149.122 167.449 148.464 167.613 147.805 167.778C147.64 167.778 147.64 167.778 147.475 167.778L147.475 111.777C143.193 110.459 138.746 109.8 134.299 109.8C129.357 109.8 124.416 110.624 119.64 112.271C116.345 113.424 113.381 114.906 110.581 116.883C107.78 118.53 105.475 120.671 103.827 123.306C101.686 126.271 100.533 129.73 100.204 133.189C100.204 133.848 100.039 134.507 100.039 135.33L100.039 135.495C100.204 160.531 117.004 166.131 117.663 166.296L118.816 166.79ZM158.181 116.883C155.546 115.071 152.746 113.753 149.781 112.6L149.781 156.578C152.087 156.248 154.064 155.589 156.04 154.601C159.334 152.954 162.299 150.483 164.44 147.519C167.076 144.06 168.558 139.777 168.723 135.33L168.723 135.166L168.558 135.001C168.558 130.718 167.24 126.765 164.935 123.142C163.123 120.671 160.817 118.53 158.181 116.883Z" fill="#F7E5E2"/>
<path d="M88.5093 108.214L86.0386 108.214L86.0386 108.049C85.8739 98.1667 86.0386 91.743 90.6505 85.4841C93.4506 82.1899 96.9095 79.5545 101.027 78.2369C106.298 76.4251 111.569 75.1074 117.004 74.1191C117.828 73.9544 118.486 73.7897 119.145 73.625L121.122 72.9662C122.275 72.6368 123.263 72.1426 124.416 71.8132C125.404 71.3191 126.228 70.825 127.051 70.4955C128.039 70.0014 128.698 69.5073 129.522 69.0132C130.181 68.519 130.84 68.0249 131.498 67.5308C132.157 67.0366 132.816 66.5425 133.31 66.0484C133.969 65.5543 134.463 65.0601 135.122 64.566L136.604 63.0836C138.581 60.7777 140.228 58.3071 141.381 55.6717C143.028 52.0481 143.852 48.0951 143.852 44.1421L143.852 17.4592L109.427 17.4592C104.98 17.4592 100.698 19.271 97.733 22.5652L97.2389 23.0593L97.2389 -5.05417e-06L97.733 0.329413C100.698 3.6236 104.98 5.4354 109.427 5.4354L200.676 5.4354C205.123 5.4354 209.406 3.6236 212.371 0.329418L212.865 0L212.865 44.1421C212.865 49.0833 212.206 54.0246 211.053 58.8012C210.229 62.5895 209.076 66.2131 207.429 69.8367C205.288 73.9544 202.488 77.7428 198.864 80.7075C196.394 82.8487 193.594 84.4958 190.629 85.6488C188.652 86.3076 186.841 86.9665 184.864 87.2959C183.876 87.4606 182.723 87.6253 181.735 87.79C181.076 87.79 180.582 87.79 179.923 87.79C179.429 87.9547 178.77 87.9547 178.276 87.9547C177.946 87.9547 177.288 87.9547 176.793 87.79C176.135 87.79 175.64 87.79 174.982 87.79C173.993 87.6253 172.84 87.4606 171.852 87.2959C169.876 86.9665 167.899 86.3076 166.087 85.6488C163.123 84.4958 160.322 82.8487 157.852 80.7075C154.228 77.7428 151.263 73.9544 149.287 69.8367C147.64 66.2131 146.322 62.5895 145.499 58.8012C145.334 58.1424 145.334 57.3188 145.169 56.66C144.675 60.1189 143.852 63.413 142.699 66.5425L141.71 69.0132C141.381 69.8367 140.887 70.6603 140.393 71.6485C139.899 72.4721 139.24 73.4603 138.581 74.2839C137.922 75.2721 137.098 76.0957 136.275 76.9192C135.287 77.9075 134.298 78.731 133.31 79.5545C132.157 80.3781 130.84 81.3664 129.522 82.0252C128.039 82.8487 126.557 83.5076 124.91 84.1664C124.086 84.4958 123.263 84.8252 122.439 84.99L119.804 85.6488C116.18 86.637 113.051 86.9665 110.58 87.2959C107.945 87.6253 105.804 87.9547 103.992 88.2841C101.027 88.6135 98.2271 89.4371 95.5918 90.7548C93.1211 92.0724 91.3093 94.049 90.3211 96.6843C89.9917 97.3431 89.6622 98.1667 89.3328 98.8255C89.1681 99.8138 89.0034 100.637 88.8387 101.626C88.5093 103.767 88.5093 106.073 88.5093 108.214ZM146.322 44.4715C146.322 49.0833 147.31 53.5305 149.287 57.6482C150.769 60.613 152.746 63.413 155.217 65.719C157.852 68.1896 160.652 70.4955 163.781 72.1426C165.758 73.2956 167.899 74.1191 170.04 74.778C171.358 75.2721 172.511 75.4368 173.829 75.6015C174.487 75.7662 175.311 75.9309 175.97 75.9309C176.299 75.9309 176.629 75.9309 177.123 75.9309C177.452 75.9309 177.782 75.9309 178.276 75.9309C178.935 75.9309 179.264 75.931 179.593 75.931C179.923 75.931 180.417 75.931 180.746 75.931C181.405 75.931 182.229 75.7662 182.888 75.6015C184.205 75.4368 185.358 75.2721 186.676 74.778C188.817 74.1191 190.958 73.2956 192.935 72.1426C196.064 70.3308 199.029 68.1896 201.5 65.719C203.97 63.4131 205.947 60.613 207.429 57.4835C209.406 53.3658 210.394 48.7539 210.394 44.3068L210.394 17.4592L146.322 17.4592L146.322 44.3068L146.322 44.4715Z" fill="#F7E5E2"/>
<path d="M126.484 637.875L110.013 637.875L110.013 654.346L142.955 654.346L142.955 637.875L159.426 621.404L208.839 621.404L208.839 670.817L175.897 670.817L175.897 654.346L192.368 654.346L192.368 637.875L159.426 637.875L159.426 670.817L142.955 670.817L93.5424 670.817L93.5424 621.404L126.484 621.404L126.484 637.875Z" fill="#F7E5E2"/>
<path d="M208.839 613.104L93.5422 613.104L93.5422 596.633L208.839 596.633L208.839 613.104ZM241.781 613.104L225.31 613.104L225.31 596.633L241.781 596.633L241.781 613.104Z" fill="#F7E5E2"/>
<path d="M192.368 571.927L93.5424 571.927L93.5424 555.456L208.839 555.456L208.839 588.398L192.368 588.398L192.368 571.927Z" fill="#F7E5E2"/>
<path d="M93.5424 497.872L208.839 497.872L208.839 514.343L110.013 514.343L110.013 530.814L208.839 530.814L208.839 547.285L93.5424 547.285L93.5424 497.872Z" fill="#F7E5E2"/>
<path d="M225.31 473.166L208.839 473.166L208.839 489.637L192.368 489.637L192.368 473.166L110.014 473.166L110.014 489.637L93.5427 489.637L93.5427 473.166L110.014 456.695L225.31 456.695L225.31 473.166Z" fill="#F7E5E2"/>
<path d="M93.5424 399.111L208.839 399.111L208.839 415.582L110.013 415.582L110.013 432.053L208.839 432.053L208.839 448.524L93.5424 448.524L93.5424 399.111Z" fill="#F7E5E2"/>
<path d="M175.897 374.405L93.5422 374.405L93.5422 357.934L241.781 357.934L241.781 390.875L225.31 390.875L225.31 374.405L192.368 374.405L192.368 390.875L175.897 390.875L175.897 374.405Z" fill="#F7E5E2"/>
<path d="M114.79 838.836L114.132 841.142L112.979 840.812C112.814 840.648 94.037 834.553 93.5429 808.2L93.5429 807.212L93.5429 805.894C93.5429 805.07 93.5429 804.247 93.7076 803.588C94.037 799.964 94.8605 796.505 96.0135 793.211C97.3312 789.588 99.143 786.293 101.284 783.329C103.92 779.705 107.214 776.74 111.002 774.434C123.191 767.517 137.85 767.517 150.038 774.434C153.826 776.74 157.121 779.705 159.756 783.329C161.897 786.293 163.709 789.588 165.027 793.211C166.18 796.505 167.003 799.964 167.333 803.588C167.497 804.741 167.497 805.894 167.497 807.047L167.497 808.2C167.333 811.659 166.674 814.953 165.686 818.082C164.533 821.541 162.556 824.671 159.921 827.141C157.121 829.941 153.662 831.918 149.873 832.906C148.391 833.236 146.909 831.753 146.579 829.612C146.415 828.294 146.415 826.812 146.579 825.494C146.909 823.188 147.567 821.706 148.391 821.871C150.862 822.035 153.168 821.706 155.474 820.882C157.944 819.729 160.085 818.082 161.732 815.941C163.874 813.471 165.191 810.341 165.191 807.047L165.191 806.717C165.191 802.435 163.874 798.317 161.403 794.858C159.591 792.223 157.285 790.082 154.65 788.27C151.85 786.458 148.72 784.976 145.426 783.823C135.708 780.364 125.167 780.364 115.614 783.823C112.32 784.976 109.19 786.458 106.39 788.435C103.59 790.082 101.284 792.223 99.4724 794.858C97.1665 798.482 95.8488 802.764 95.8488 807.047L95.8488 807.212C96.0135 832.741 113.473 838.342 113.637 838.506L114.79 838.836Z" fill="#F7E5E2"/>
<path d="M167.497 749.922C167.497 746.628 170.298 743.993 173.592 743.993C176.886 743.993 179.521 746.628 179.521 749.922C179.521 753.216 176.886 756.016 173.592 756.016C170.298 756.016 167.497 753.216 167.497 749.922ZM142.956 743.993C145.921 743.993 149.05 743.663 152.18 743.004C154.156 742.675 156.133 742.016 158.109 741.357C162.556 739.545 165.356 735.098 165.192 730.322L167.497 730.322C167.497 733.451 167.168 736.581 166.18 739.545C165.521 742.016 164.368 744.487 162.886 746.628C161.074 749.099 158.768 751.24 156.133 752.722C152.015 754.863 147.403 756.016 142.956 755.852L105.567 755.852C101.12 755.852 96.8372 757.828 93.8724 761.122L93.543 761.452L93.543 738.393L93.8724 738.887C96.8372 742.181 101.12 743.993 105.567 743.993L142.956 743.993Z" fill="#F7E5E2"/>
<path d="M165.191 727.449L165.191 713.942L119.567 713.942C116.437 713.942 113.143 714.107 109.849 714.601C107.708 714.766 105.567 715.26 103.59 715.754C101.614 716.248 99.9665 717.237 98.4841 718.554C96.6723 720.531 95.6841 723.166 95.8488 725.802L93.5428 725.802C93.3781 722.507 94.037 719.378 95.1899 716.413C96.3429 714.107 97.6606 711.801 99.4724 709.989C101.449 707.684 103.92 705.872 106.72 704.554C110.837 702.907 115.12 701.919 119.567 701.919L165.191 701.919L165.191 693.024C169.803 703.895 190.886 713.942 190.886 713.942L167.497 713.942L167.497 727.449L165.191 727.449Z" fill="#F7E5E2"/>
<path d="M42.352 766.732L13.6289 795.167L26.5531 795.167L42.352 778.795L42.352 766.732Z" fill="#F7E5E2"/>
<path d="M42.3517 738.87L3 778.507L3 790.793L42.3517 752.945L42.3517 738.87Z" fill="#F7E5E2"/>
<path d="M42.3517 709.861L3 749.499L3 763.506L42.3517 724.51L42.3517 709.861Z" fill="#F7E5E2"/>
<path d="M42.3517 682.287L3 721.924L3 735.568L42.3517 696.362L42.3517 682.287Z" fill="#F7E5E2"/>
<path d="M42.3517 654.138L3 693.704L3 707.276L42.3517 667.925L42.3517 654.138Z" fill="#F7E5E2"/>
<path d="M42.3517 625.702L3 665.483L3 679.414L42.3517 639.777L42.3517 625.702Z" fill="#F7E5E2"/>
<path d="M3 603.013L3 622.4L12.4798 612.705L3 603.013Z" fill="#F7E5E2"/>
<path d="M3 588.362L26.8404 612.705L3 637.767L3 650.547L41.2029 612.705L3 574.575L3 588.362Z" fill="#F7E5E2"/>
<path d="M3 545.852L3 559.926L42.3516 599.278L42.3516 584.915L3 545.852Z" fill="#F7E5E2"/>
<path d="M3 519.14L3 533.215L42.3516 572.565L42.3516 558.204L3 519.14Z" fill="#F7E5E2"/>
<path d="M3 489.7L3 503.773L42.3516 543.124L42.3516 528.762L3 489.7Z" fill="#F7E5E2"/>
<path d="M3 461.55L3 475.625L42.3516 514.974L42.3516 500.614L3 461.55Z" fill="#F7E5E2"/>
<path d="M3 433.69L3 447.763L42.3516 487.115L42.3516 472.752L3 433.69Z" fill="#F7E5E2"/>
<path d="M13.3411 429.525L42.3518 458.821L42.3518 444.173L27.8455 429.525L13.3411 429.525Z" fill="#F7E5E2"/>
<path d="M3 840.812L3 800.878L42.3498 800.878L42.3498 840.812L3 840.812Z" fill="#F7E5E2" stroke="#3F4CF7" stroke-width="5" stroke-linecap="round" stroke-linejoin="round"/>
<path d="M36.9991 821.645C36.9991 829.764 30.4172 836.346 22.298 836.346C14.1788 836.346 7.59692 829.764 7.59692 821.645C7.59692 813.526 14.1788 806.944 22.298 806.944C30.4172 806.944 36.9991 813.526 36.9991 821.645Z" fill="#F7E5E2" stroke="#3F4CF7" stroke-width="5" stroke-linecap="round" stroke-linejoin="round"/>
<path d="M29.908 809.065L7.59692 821.645L29.908 834.226L29.908 809.065Z" fill="#F7E5E2" stroke="#3F4CF7" stroke-width="5" stroke-linecap="round" stroke-linejoin="round"/>
<path d="M14.0569 818.002L23.968 823.315L23.968 819.552" fill="#F7E5E2"/>
<path d="M14.0569 818.002L23.968 823.315L23.968 819.552" stroke="#3F4CF7" stroke-width="5" stroke-linecap="round" stroke-linejoin="round"/>
<path d="M20.8528 821.645L29.9083 815.561" stroke="#3F4CF7" stroke-width="5" stroke-linecap="round" stroke-linejoin="round"/>
<path d="M64.0005 838.63C64.0005 839.691 63.1406 840.551 62.0798 840.551C61.0191 840.551 60.1592 839.691 60.1592 838.63C60.1592 837.569 61.0191 836.709 62.0798 836.709C63.1406 836.709 64.0005 837.569 64.0005 838.63Z" fill="#F7E5E2"/>
<path d="M64.0005 828.067C64.0005 829.128 63.1406 829.988 62.0798 829.988C61.0191 829.988 60.1592 829.128 60.1592 828.067C60.1592 827.006 61.0191 826.146 62.0798 826.146C63.1406 826.146 64.0005 827.006 64.0005 828.067Z" fill="#F7E5E2"/>
<path d="M64.0005 817.506C64.0005 818.566 63.1406 819.426 62.0798 819.426C61.0191 819.426 60.1592 818.566 60.1592 817.506C60.1592 816.445 61.0191 815.585 62.0798 815.585C63.1406 815.585 64.0005 816.445 64.0005 817.506Z" fill="#F7E5E2"/>
<path d="M64.0005 806.945C64.0005 808.006 63.1406 808.866 62.0798 808.866C61.0191 808.866 60.1592 808.006 60.1592 806.945C60.1592 805.884 61.0191 805.024 62.0798 805.024C63.1406 805.024 64.0005 805.884 64.0005 806.945Z" fill="#F7E5E2"/>
<path d="M64.0005 776.272C64.0005 777.333 63.1406 778.193 62.0798 778.193C61.0191 778.193 60.1592 777.333 60.1592 776.272C60.1592 775.211 61.0191 774.352 62.0798 774.352C63.1406 774.352 64.0005 775.211 64.0005 776.272Z" fill="#F7E5E2"/>
<path d="M64.0005 765.71C64.0005 766.771 63.1406 767.631 62.0798 767.631C61.0191 767.631 60.1592 766.771 60.1592 765.71C60.1592 764.649 61.0191 763.79 62.0798 763.79C63.1406 763.79 64.0005 764.649 64.0005 765.71Z" fill="#F7E5E2"/>
<path d="M64.0005 755.15C64.0005 756.211 63.1406 757.071 62.0798 757.071C61.0191 757.071 60.1592 756.211 60.1592 755.15C60.1592 754.089 61.0191 753.229 62.0798 753.229C63.1406 753.229 64.0005 754.089 64.0005 755.15Z" fill="#F7E5E2"/>
<path d="M64.0005 744.586C64.0005 745.647 63.1406 746.507 62.0798 746.507C61.0191 746.507 60.1592 745.647 60.1592 744.586C60.1592 743.525 61.0191 742.666 62.0798 742.666C63.1406 742.666 64.0005 743.525 64.0005 744.586Z" fill="#F7E5E2"/>
<path d="M64.0005 714.312C64.0005 715.373 63.1406 716.233 62.0798 716.233C61.0191 716.233 60.1592 715.373 60.1592 714.312C60.1592 713.251 61.0191 712.392 62.0798 712.392C63.1406 712.392 64.0005 713.251 64.0005 714.312Z" fill="#F7E5E2"/>
<path d="M64.0005 703.752C64.0005 704.812 63.1406 705.672 62.0798 705.672C61.0191 705.672 60.1592 704.812 60.1592 703.752C60.1592 702.691 61.0191 701.831 62.0798 701.831C63.1406 701.831 64.0005 702.691 64.0005 703.752Z" fill="#F7E5E2"/>
<path d="M64.0005 693.189C64.0005 694.25 63.1406 695.109 62.0798 695.109C61.0191 695.109 60.1592 694.25 60.1592 693.189C60.1592 692.128 61.0191 691.268 62.0798 691.268C63.1406 691.268 64.0005 692.128 64.0005 693.189Z" fill="#F7E5E2"/>
<path d="M64.0005 682.627C64.0005 683.688 63.1406 684.548 62.0798 684.548C61.0191 684.548 60.1592 683.688 60.1592 682.627C60.1592 681.567 61.0191 680.707 62.0798 680.707C63.1406 680.707 64.0005 681.567 64.0005 682.627Z" fill="#F7E5E2"/>
<path d="M64.0005 615.617C64.0005 616.678 63.1406 617.538 62.0798 617.538C61.0191 617.538 60.1592 616.678 60.1592 615.617C60.1592 614.557 61.0191 613.697 62.0798 613.697C63.1406 613.697 64.0005 614.557 64.0005 615.617Z" fill="#F7E5E2"/>
<path d="M64.0005 481.083C64.0005 482.144 63.1406 483.004 62.0798 483.004C61.0191 483.004 60.1592 482.144 60.1592 481.083C60.1592 480.023 61.0191 479.163 62.0798 479.163C63.1406 479.163 64.0005 480.023 64.0005 481.083Z" fill="#F7E5E2"/>
<path d="M64.0005 449.478C64.0005 450.539 63.1406 451.398 62.0798 451.398C61.0191 451.398 60.1592 450.539 60.1592 449.478C60.1592 448.417 61.0191 447.557 62.0798 447.557C63.1406 447.557 64.0005 448.417 64.0005 449.478Z" fill="#F7E5E2"/>
<path d="M64.0005 417.833C64.0005 418.894 63.1406 419.754 62.0798 419.754C61.0191 419.754 60.1592 418.894 60.1592 417.833C60.1592 416.772 61.0191 415.912 62.0798 415.912C63.1406 415.912 64.0005 416.772 64.0005 417.833Z" fill="#F7E5E2"/>
<path d="M60.1592 798.124L60.1592 785.353C60.1592 784.904 60.5227 784.541 60.9711 784.541L63.1885 784.541C63.637 784.541 64.0005 784.904 64.0005 785.353L64.0005 798.124C64.0005 798.572 63.637 798.936 63.1885 798.936L60.9711 798.936C60.5227 798.936 60.1592 798.572 60.1592 798.124Z" fill="#F7E5E2"/>
<path d="M60.1592 735.507L60.1592 722.736C60.1592 722.287 60.5227 721.924 60.9711 721.924L63.1885 721.924C63.637 721.924 64.0005 722.287 64.0005 722.736L64.0005 735.507C64.0005 735.956 63.637 736.319 63.1885 736.319L60.9711 736.319C60.5227 736.319 60.1592 735.956 60.1592 735.507Z" fill="#F7E5E2"/>
<path d="M60.1592 673.467L60.1592 660.695C60.1592 660.247 60.5227 659.883 60.9711 659.883L63.1885 659.883C63.637 659.883 64.0005 660.247 64.0005 660.695L64.0005 673.467C64.0005 673.915 63.637 674.279 63.1885 674.279L60.9711 674.279C60.5227 674.279 60.1592 673.915 60.1592 673.467Z" fill="#F7E5E2"/>
<path d="M60.1592 605.663L60.1592 592.892C60.1592 592.443 60.5227 592.08 60.9711 592.08L63.1885 592.08C63.637 592.08 64.0005 592.443 64.0005 592.892L64.0005 605.663C64.0005 606.111 63.637 606.475 63.1885 606.475L60.9711 606.475C60.5227 606.475 60.1592 606.111 60.1592 605.663Z" fill="#F7E5E2"/>
<path d="M60.1592 586.148L60.1592 573.377C60.1592 572.928 60.5227 572.565 60.9711 572.565L63.1885 572.565C63.637 572.565 64.0005 572.928 64.0005 573.377L64.0005 586.148C64.0005 586.597 63.637 586.96 63.1885 586.96L60.9711 586.96C60.5227 586.96 60.1592 586.597 60.1592 586.148Z" fill="#F7E5E2"/>
<path d="M60.1592 565.244L60.1592 552.473C60.1592 552.025 60.5227 551.661 60.9711 551.661L63.1885 551.661C63.637 551.661 64.0005 552.025 64.0005 552.473L64.0005 565.244C64.0005 565.693 63.637 566.056 63.1885 566.056L60.9711 566.056C60.5227 566.056 60.1592 565.693 60.1592 565.244Z" fill="#F7E5E2"/>
<path d="M60.1592 544.339L60.1592 531.568C60.1592 531.119 60.5227 530.756 60.9711 530.756L63.1885 530.756C63.637 530.756 64.0005 531.119 64.0005 531.568L64.0005 544.339C64.0005 544.787 63.637 545.151 63.1885 545.151L60.9711 545.151C60.5227 545.151 60.1592 544.787 60.1592 544.339Z" fill="#F7E5E2"/>
<path d="M60.1592 503.283L60.1592 490.512C60.1592 490.063 60.5227 489.7 60.9711 489.7L63.1885 489.7C63.637 489.7 64.0005 490.063 64.0005 490.512L64.0005 503.283C64.0005 503.731 63.637 504.095 63.1885 504.095L60.9711 504.095C60.5227 504.095 60.1592 503.731 60.1592 503.283Z" fill="#F7E5E2"/>
<path d="M60.1592 471.654L60.1592 458.883C60.1592 458.434 60.5227 458.071 60.9711 458.071L63.1885 458.071C63.637 458.071 64.0005 458.434 64.0005 458.883L64.0005 471.654C64.0005 472.103 63.637 472.466 63.1885 472.466L60.9711 472.466C60.5227 472.466 60.1592 472.103 60.1592 471.654Z" fill="#F7E5E2"/>
<path d="M60.1592 440.075L60.1592 427.303C60.1592 426.855 60.5227 426.491 60.9711 426.491L63.1885 426.491C63.637 426.491 64.0005 426.855 64.0005 427.303L64.0005 440.075C64.0005 440.523 63.637 440.886 63.1885 440.886L60.9711 440.886C60.5227 440.886 60.1592 440.523 60.1592 440.075Z" fill="#F7E5E2"/>
<path d="M47.7937 839.449L47.7937 385.507C47.7937 384.753 48.405 384.142 49.1591 384.142L52.8913 384.142C53.6454 384.142 54.2567 384.753 54.2567 385.507L54.2567 839.449C54.2567 840.203 53.6454 840.815 52.8913 840.815L49.1591 840.815C48.405 840.815 47.7937 840.203 47.7937 839.449Z" fill="#F7E5E2"/>
<path d="M3 424.642L3 385.292L42.3498 385.292L42.3498 424.642L3 424.642Z" fill="#F7E5E2"/>
<path d="M63.8912 314.142H3V374.142H63.8912V314.142Z" fill="#F7E5E2" stroke="#3F4CF7" stroke-linecap="round" stroke-linejoin="round"/>
<path d="M34.6653 365.983C47.0453 365.983 57.0813 355.947 57.0813 343.567C57.0813 331.187 47.0453 321.151 34.6653 321.151C22.2853 321.151 12.2493 331.187 12.2493 343.567C12.2493 355.947 22.2853 365.983 34.6653 365.983Z" fill="#F7E5E2" stroke="#3F4CF7" stroke-linecap="round" stroke-linejoin="round"/>
<path d="M15.4841 355.171L34.666 321.151L53.8479 355.171H15.4841Z" fill="#F7E5E2" stroke="#3F4CF7" stroke-linecap="round" stroke-linejoin="round"/>
<path d="M29.1113 331L37.2115 346.113H31.4736" fill="#F7E5E2"/>
<path d="M29.1113 331L37.2115 346.113H31.4736" stroke="#3F4CF7" stroke-linecap="round" stroke-linejoin="round"/>
<path d="M34.666 341.363L25.3887 355.171" stroke="#3F4CF7" stroke-linecap="round" stroke-linejoin="round"/>
</svg>
