<svg width="28" height="28" viewBox="0 0 28 28" fill="none" xmlns="http://www.w3.org/2000/svg">
<path d="M5.13888 18.1141L10.4239 23.3991C12.5939 25.5691 16.1172 25.5691 18.2989 23.3991L23.4205 18.2774C25.5905 16.1074 25.5905 12.5841 23.4205 10.4024L18.1239 5.1291C17.0155 4.02076 15.4872 3.42576 13.9239 3.50743L8.09055 3.78743C5.75722 3.89243 3.90222 5.74743 3.78555 8.0691L3.50555 13.9024C3.43555 15.4774 4.03055 17.0058 5.13888 18.1141Z" stroke="white" stroke-width="2" stroke-linecap="round" stroke-linejoin="round"/>
<path d="M11.3571 14.264C12.9679 14.264 14.2738 12.9582 14.2738 11.3473C14.2738 9.7365 12.9679 8.43066 11.3571 8.43066C9.74627 8.43066 8.44043 9.7365 8.44043 11.3473C8.44043 12.9582 9.74627 14.264 11.3571 14.264Z" stroke="white" stroke-width="2" stroke-linecap="round"/>
<path d="M15.4404 20.0973L20.1071 15.4307" stroke="white" stroke-width="2" stroke-miterlimit="10" stroke-linecap="round" stroke-linejoin="round"/>
</svg>
